<svg xmlns="http://www.w3.org/2000/svg" width="50" height="50" viewBox="0 0 50 50">
  <path fill="#4A90E2" d="M38,7 L13,7 L13,10 L38,10 L38,7 Z M13,44 L38,44 L38,41 L13,41 L13,44 Z M37.9,13 L13.1,13 C11.395,13 10,14.40625 10,16.125 L10,34.875 C10,36.59375 11.395,38 13.1,38 L37.9,38 C39.605,38 41,36.59375 41,34.875 L41,16.125 C41,14.40625 39.605,13 37.9,13 Z M25.5,17 C27.4288889,17 29,18.5711111 29,20.5 C29,22.4288889 27.4288889,24 25.5,24 C23.5711111,24 22,22.4288889 22,20.5 C22,18.5711111 23.5711111,17 25.5,17 Z M34,33 L18,33 L18,30.75 C18,28.245 23.328,27 26,27 C28.672,27 34,28.245 34,30.75 L34,33 Z"/>
</svg>
